<svg id="Calque_1" data-name="Calque 1" xmlns="http://www.w3.org/2000/svg" width="130.2mm" height="30.8mm" viewBox="0 0 369.2 87.3">
  <defs>
    <style>
      .cls-1 {
        fill: #fff;
      }

      .cls-2 {
        fill: #3d3c19;
      }
    </style>
  </defs>
  <g>
    <polygon class="cls-1" points="126.3 24.9 130 28.5 130 15.1 126.3 15.1 126.3 24.9"/>
    <rect class="cls-1" x="255.3" y="15.1" width="3.6" height="49.93"/>
    <polygon class="cls-1" points="25.6 24.9 29.2 28.5 29.2 15.1 25.6 15.1 25.6 24.9"/>
    <polygon class="cls-1" points="340 24.9 343.6 28.5 343.6 15.1 340 15.1 340 24.9"/>
    <path class="cls-1" d="M324.7,12.9,325.2,0H124.4L111.1,12.4,111.6,0H24.5L0,22.8V87.3H369.2V0H338.6ZM43.4,75.8H29.2V43.7L25.6,40V75.8H11.3V23.7l7.5-6.6L33.1,4.3H43.4Zm60.3,0H89.4V17.6l-3.6,1.8V75.8H71.6V19.4l-3.7-1.8V75.8H53.7V4.3H65.5l13.2,6.6L91.9,4.3h11.8Zm40.5,0H130V43.7L126.3,40V75.8H112.1V23.7l7.4-6.6c1-.9,8-7,14.4-12.8h10.3Zm44.2,0H174.2V19.4l-3.7-1.8V75.8H156.3V4.3h11.8l6.1,3.1V4.3h14.2Zm42.4-47.3-14.3-7.2V15.1h-3.6v50h3.6V37.4l-1.7-1V24.5l16,8V75.8H198.7V4.3h32.1Zm42.4,47.3H241V4.3h32.2Zm42.3,0H283.4V4.3h14.2V65.1h3.7V4.3h14.2Zm42.4,0H343.6V43.7L340,40V75.8H325.7V23.7l7.5-6.6L347.5,4.3h10.4Z" transform="translate(0 0)"/>
  </g>
  <path class="cls-2" d="M56.9-4.1" transform="translate(0 0)"/>
</svg>
