<svg width="500" height="500" viewBox="0 0 500 500" fill="none" xmlns="http://www.w3.org/2000/svg">
<rect width="500" height="500" rx="125" fill="#EAE8E7"/>
<g clip-path="url(#clip0_2689_67)">
<path fill-rule="evenodd" clip-rule="evenodd" d="M172.129 92H93.1286V171C93.1286 211.23 123.2 244.437 162.09 249.368C122.654 253.795 92 287.253 92 327.872L92 406.872H171C211.23 406.872 244.437 376.8 249.368 337.91C253.795 377.346 287.253 408 327.872 408H406.872V329C406.872 288.77 376.8 255.563 337.91 250.632C377.346 246.205 408 212.747 408 172.129V93.1286L329 93.1286C288.77 93.1286 255.563 123.2 250.632 162.09C246.205 122.654 212.747 92 172.129 92Z" fill="black"/>
</g>
<defs>
<clipPath id="clip0_2689_67">
<rect width="316" height="316" fill="white" transform="translate(92 92)"/>
</clipPath>
</defs>
</svg>
