<svg width="500" height="500" viewBox="0 0 500 500" fill="none" xmlns="http://www.w3.org/2000/svg">
<g clip-path="url(#clip0_2689_156)">
<rect width="500" height="500" rx="125" fill="#EAE8E7"/>
<rect width="500" height="500" fill="#191919"/>
<mask id="mask0_2689_156" style="mask-type:alpha" maskUnits="userSpaceOnUse" x="0" y="0" width="500" height="500">
<rect width="500" height="500" rx="115.385" fill="white"/>
</mask>
<g mask="url(#mask0_2689_156)">
<g clip-path="url(#clip1_2689_156)">
<path d="M108.394 325.205H392.976C394.437 322.587 395.752 319.823 397.067 317.059H104.304C105.619 319.823 106.933 322.587 108.394 325.205ZM174.427 391.247H326.798C328.989 390.083 331.327 388.774 333.518 387.465H167.853C170.044 388.774 172.235 390.083 174.427 391.247ZM131.915 358.226H369.602C371.355 356.335 373.108 354.299 374.861 352.262H126.655C128.409 354.299 130.016 356.335 131.915 358.226ZM250.685 89.6955C181.877 89.6955 123.149 132.608 100.067 193.122H401.304C378.221 132.608 319.494 89.6955 250.685 89.6955ZM149.591 374.809H351.925C353.825 373.209 355.87 371.609 357.769 369.864H143.748C145.647 371.609 147.546 373.209 149.591 374.809ZM411.676 246.654H89.6948C89.6948 247.817 89.6948 248.836 89.6948 249.999C89.6948 253.054 89.8409 256.109 89.987 259.164H411.53C411.676 256.109 411.822 253.054 411.822 249.999C411.676 248.836 411.676 247.817 411.676 246.654ZM118.621 341.789H382.896C384.503 339.461 386.11 337.134 387.571 334.661H113.946C115.407 337.134 117.014 339.461 118.621 341.789ZM100.798 308.768H400.573C401.742 305.713 402.911 302.658 403.933 299.458H97.4376C98.4602 302.513 99.6289 305.713 100.798 308.768ZM250.685 410.303C264.856 410.303 278.588 408.412 291.59 405.066H209.78C222.782 408.558 236.515 410.303 250.685 410.303ZM407.001 211.451H94.3697C93.201 216.251 92.1783 221.197 91.4479 226.143H409.923C409.192 221.052 408.17 216.251 407.001 211.451ZM401.596 193.849H99.775C97.8758 198.941 96.1228 204.323 94.808 209.56H406.563C405.102 204.177 403.495 198.941 401.596 193.849ZM410.361 229.052H91.0096C90.4253 233.562 89.987 238.071 89.8409 242.581H411.53C411.384 238.071 410.945 233.562 410.361 229.052ZM95.2462 292.185H406.125C407.001 288.839 407.878 285.348 408.608 281.856H92.7627C93.4931 285.348 94.3697 288.839 95.2462 292.185ZM91.7401 275.601H409.777C410.361 271.819 410.799 268.037 411.238 264.255H90.2792C90.5714 268.037 91.1557 271.965 91.7401 275.601Z" fill="url(#paint0_linear_2689_156)"/>
</g>
<g clip-path="url(#clip2_2689_156)">
<path d="M108.554 325.131H393.101C394.561 322.515 395.876 319.754 397.191 316.993H104.464C105.778 319.754 107.093 322.515 108.554 325.131ZM174.578 391.107H326.93C329.121 389.944 331.458 388.636 333.65 387.328H168.005C170.196 388.636 172.387 389.944 174.578 391.107ZM132.071 358.119H369.729C371.482 356.229 373.235 354.195 374.988 352.161H126.812C128.565 354.195 130.172 356.229 132.071 358.119ZM250.827 89.8558C182.027 89.8558 123.307 132.726 100.227 193.179H401.427C378.347 132.726 319.627 89.8558 250.827 89.8558ZM149.746 374.685H352.054C353.953 373.087 355.998 371.488 357.897 369.744H143.903C145.802 371.488 147.701 373.087 149.746 374.685ZM411.798 246.657H89.8564C89.8564 247.82 89.8564 248.837 89.8564 250C89.8564 253.051 90.0025 256.103 90.1486 259.155H411.652C411.798 256.103 411.944 253.051 411.944 250C411.798 248.837 411.798 247.82 411.798 246.657ZM118.779 341.697H383.022C384.628 339.372 386.235 337.047 387.696 334.577H114.104C115.565 337.047 117.172 339.372 118.779 341.697ZM100.958 308.709H400.696C401.865 305.658 403.033 302.606 404.056 299.409H97.5982C98.6207 302.461 99.7893 305.658 100.958 308.709ZM250.827 410.144C264.996 410.144 278.727 408.255 291.727 404.912H209.927C222.927 408.4 236.658 410.144 250.827 410.144ZM407.123 211.49H94.5307C93.3622 216.285 92.3397 221.226 91.6093 226.167H410.045C409.314 221.081 408.292 216.285 407.123 211.49ZM401.719 193.906H99.9354C98.0364 198.992 96.2836 204.369 94.9689 209.6H406.685C405.224 204.224 403.618 198.992 401.719 193.906ZM410.483 229.073H91.1711C90.5868 233.578 90.1486 238.083 90.0025 242.588H411.652C411.506 238.083 411.067 233.578 410.483 229.073ZM95.4072 292.143H406.247C407.123 288.8 408 285.313 408.73 281.825H92.9239C93.6543 285.313 94.5307 288.8 95.4072 292.143ZM91.9014 275.576H409.899C410.483 271.798 410.921 268.02 411.359 264.241H90.4407C90.7329 268.02 91.3171 271.943 91.9014 275.576Z" fill="url(#paint1_linear_2689_156)"/>
</g>
</g>
</g>
<defs>
<linearGradient id="paint0_linear_2689_156" x1="250.685" y1="92.9068" x2="250.685" y2="413.974" gradientUnits="userSpaceOnUse">
<stop stop-color="white"/>
<stop offset="0.191575" stop-color="#CFCFCF"/>
<stop offset="0.453125" stop-color="#5F5F5F"/>
<stop offset="0.822917" stop-color="#191919"/>
</linearGradient>
<linearGradient id="paint1_linear_2689_156" x1="339.069" y1="80.859" x2="338.46" y2="349.684" gradientUnits="userSpaceOnUse">
<stop stop-color="white"/>
<stop offset="0.145833" stop-color="#FFBB88"/>
<stop offset="0.286458" stop-color="#FF7CBA"/>
<stop offset="0.520396" stop-color="#887BFF"/>
<stop offset="0.769108" stop-color="#03C7F6"/>
<stop offset="0.880508" stop-color="#278CA4" stop-opacity="0.26"/>
<stop offset="1" stop-color="#4D4D4D" stop-opacity="0"/>
</linearGradient>
<clipPath id="clip0_2689_156">
<rect width="500" height="500" rx="125" fill="white"/>
</clipPath>
<clipPath id="clip1_2689_156">
<rect width="322.127" height="320.608" fill="white" transform="translate(89.6948 89.6955)"/>
</clipPath>
<clipPath id="clip2_2689_156">
<rect width="161.943" height="320.288" fill="white" transform="translate(89.8564 89.8557)"/>
</clipPath>
</defs>
</svg>
